<?xml version="1.0" encoding="UTF-8" standalone="no"?>
<svg width="36px" height="30px" viewBox="0 0 36 30" version="1.1" xmlns="http://www.w3.org/2000/svg" xmlns:xlink="http://www.w3.org/1999/xlink" xmlns:sketch="http://www.bohemiancoding.com/sketch/ns">
    <!-- Generator: Sketch 3.3.3 (12081) - http://www.bohemiancoding.com/sketch -->
    <title>Group</title>
    <desc>Created with Sketch.</desc>
    <defs></defs>
    <g id="Page-1" stroke="none" stroke-width="1" fill="none" fill-rule="evenodd" sketch:type="MSPage">
        <g id="welcome-twitter" sketch:type="MSLayerGroup" fill="#738BD7">
            <g id="Group" sketch:type="MSShapeGroup">
                <path d="M33,2 L31,6 L34,5 L31,8 L31,8.5 C31,9 30.9,9.6 30.8,10.1 C30.7,14.2 29.4,19.7 24,24 C20.2,27.1 16.2,28 12.8,28 C6.7,28 2,25 2,25 C11,25 11,22 11,22 C9,22 5,18 5,18 C5.3,18.3 5.8,18.4 6.2,18.4 C7.1,18.4 8,18 8,18 C3,15 3,12 3,12 C3.3,12.3 3.8,12.4 4.2,12.4 C5.1,12.4 6,12 6,12 C1,8 4,3 4,3 C5,8 18,10 18,10 L18.2,9.9 C18.1,9.4 18,8.5 18,8 C18,4.4 20.9,2 24.5,2 C26.5,2 28.2,2.9 29.4,4.3 L30,4 L33,2 L33,2 Z M33,0 C32.6,0 32.2,0.1 31.9,0.3 L29.7,1.8 C28.2,0.6 26.4,0 24.5,0 C19.8,0 16.2,3.2 16,7.6 C11.5,6.6 6.4,4.6 6,2.6 C5.8,1.8 5.2,1.2 4.4,1 L4.1,1 C3.4,1 2.8,1.4 2.4,2 C1.4,3.7 0.5,7 2.1,10.3 C1.5,10.7 1.1,11.3 1.1,12 C1.1,12.3 1.2,14.4 3.5,16.8 C3,17.6 3,18.7 3.7,19.4 C4.4,20.1 5.8,21.4 7.3,22.4 C6.2,22.7 4.6,22.9 2.1,22.9 C1.2,22.9 0.4,23.5 0.2,24.3 C-0.1,25.1 0.3,26.1 1,26.5 C1.2,26.6 6.2,29.9 12.8,29.9 C17.4,29.9 21.6,28.4 25.3,25.4 C31.3,20.6 32.7,14.5 32.8,10.2 C32.9,9.7 33,9.2 33,8.7 L35.4,6.3 C35.8,5.9 36,5.4 36,4.8 C36,3.9 35.4,3.2 34.7,2.9 L34.8,2.7 C35.2,1.9 35,0.9 34.3,0.3 C33.9,0.2 33.5,0 33,0 L33,0 L33,0 Z" id="Shape"></path>
            </g>
        </g>
    </g>
</svg>