<?xml version="1.0" encoding="utf-8"?>
<!-- Generator: Adobe Illustrator 19.0.0, SVG Export Plug-In . SVG Version: 6.00 Build 0)  -->
<svg version="1.1" id="Layer_1" xmlns="http://www.w3.org/2000/svg" xmlns:xlink="http://www.w3.org/1999/xlink" x="0px" y="0px"
	 viewBox="17 -17 50 50" style="enable-background:new 17 -17 50 50;" xml:space="preserve">
<style type="text/css">
	.st0{fill-rule:evenodd;clip-rule:evenodd;fill:#738BD7;}
</style>
<g id="tool_-_cell_phone_android_mobile">
	<g>
		<path class="st0" d="M42,16c-1.1,0-2,0.9-2,2c0,1.1,0.9,2,2,2c1.1,0,2-0.9,2-2C44,16.9,43.1,16,42,16z M48-8H36c-3.3,0-6,2.7-6,6
			v20c0,3.3,2.7,6,6,6h12c3.3,0,6-2.7,6-6V-2C54-5.3,51.3-8,48-8z M52,19c0,1.7-1.3,3-3,3H35c-1.7,0-3-1.3-3-3V-3c0-1.7,1.3-3,3-3
			h14c1.7,0,3,1.3,3,3V19z M45-4h-6c-0.6,0-1,0.4-1,1c0,0.6,0.4,1,1,1h6c0.6,0,1-0.4,1-1C46-3.6,45.6-4,45-4z"/>
	</g>
</g>
</svg>
