<svg height="218" viewBox="0 0 421 218" width="421" xmlns="http://www.w3.org/2000/svg"><g fill="none" fill-rule="evenodd"><path d="m0 125.6392c0 9.436 7.649 17.085 17.085 17.085h29.45c16.506 0 29.886 13.381 29.886 29.888 0 16.506 13.382 29.887 29.888 29.887h265.564c5.622 0 10.18-4.558 10.18-10.18v-.001c0-5.622-4.558-10.18-10.18-10.18h-31.161c-3.96 0-7.17-3.21-7.17-7.17v-.005c0-3.96 3.21-7.17 7.17-7.17h25.209c26.466 0 47.92-21.454 47.92-47.92 0-26.465-21.454-47.92-47.92-47.92h-51.401c-11.029 0-19.97-8.94-19.97-19.97v-.001c0-11.029-8.941-19.97-19.97-19.97h-195.43c-7.262 0-13.15 5.888-13.15 13.15v.006c0 7.263 5.888 13.15 13.15 13.15h14.65c13.872 0 25.117 11.245 25.117 25.117v.001c0 13.872-11.245 25.118-25.117 25.118h-76.715c-9.436 0-17.085 7.649-17.085 17.085" fill="#4f545c" fill-opacity=".3"/><path d="m117.5728 191.9996h15.412c-.006-.126-.03-.25-.03-.377v-43.432c0-6.034 6.247-11.519 16.829-15.869v-.752c0-5.514 4.486-10 10-10h2.652c.2-2.85 1.018-5.528 2.342-7.896v-18.886c-.161.337-.498.573-.896.573-.553 0-1-.447-1-1v-69.361h-60.657v5.13c2.93.44 5.498 2.117 7.056 4.735 1.845 3.103 1.888 6.834.114 9.978-.175.31-.5.503-.855.509-.056.001-.112.001-.168.001-2.292 0-4.427-.767-6.147-2.129v148.776h9.35c.327 0 .602.167.785.408h4.428c.183-.241.459-.408.785-.408" fill="#36393f"/><path d="m371.354 141.3941c1.147-.845 2.732-.896 4.461-.148 1.857.803 3.99 2.694 4.286 4.617.333 2.161-.69 4.541-2.605 6.062-1.144.908-2.46 1.38-3.746 1.381-.645 0-1.282-.12-1.886-.362-1.105-.444-1.831-1.801-2.1-3.926-.301-2.382-.004-6.453 1.59-7.624zm-6.326 17.66c-.421.52-1.106.702-1.837.702-.952 0-1.983-.308-2.615-.58-1.837-.792-1.991-1.809-1.919-2.344v-.001c.117-.867.703-1.491 1.607-1.714 1.444-.351 3.78.407 4.544 1.483.896 1.265.523 2.081.22 2.454zm-6.608 1.112c4.464 2.446 11.99 1.174 17.444-3.034 2.247-1.735 7.246-6.486 5.13-13.128-1.158-3.633-3.821-6.893-7.5-9.181-2.659-1.652-5.518-2.522-8.161-2.522-.9 0-1.774.101-2.607.306-1.63.401-3.066 1.184-4.306 2.321v2.431c.165-.068.334-.125.51-.165.878-.199 1.837-.031 2.704.477v.001c1.499.881 2.299 2.468 1.991 3.948-.294 1.417-1.762 3.451-3.019 4.184-.732.427-1.366.576-1.893.576-.105 0-.197-.016-.293-.027z" fill="#72767d"/><path d="m371.7485 148.7672c.216 1.707.694 2.254.86 2.321 1.151.461 2.478.195 3.643-.729 1.342-1.066 2.095-2.751 1.873-4.192-.139-.902-1.419-2.357-3.103-3.085-.311-.134-.916-.357-1.515-.357-.344 0-.686.074-.968.281-.476.349-1.137 3.022-.79 5.761m-12.1499-4.6905c.752-.439 1.893-2.018 2.069-2.864.146-.702-.416-1.446-1.047-1.817-.319-.187-.648-.284-.952-.284-.1 0-.198.01-.292.031-.393.091-.708.359-.957.705v4.45c.268.15.661.081 1.179-.221" fill="#36393f"/><path d="m363.1826 157.7662c-.002-.003-.004-.006-.007-.009-.144-.189-.925-.603-1.762-.709-.284-.035-.484-.025-.614-.002.504.359 1.695.712 2.383.72" fill="#4f545c"/><path d="m331.0239 115.3785c3.025 1.971 4.708 5.301 4.502 8.906-.02.354-.227.671-.543.833-1.447.74-2.999 1.107-4.543 1.107-1.885 0-3.759-.547-5.422-1.631-1.018-.663-1.869-1.49-2.562-2.42v42.889c0 .552-.448 1-1 1-.183 0-.346-.063-.494-.149v9.063c3.236 0 5.868 2.631 5.868 5.866v3.454c0 .989-.805 1.793-1.794 1.793h-1.056c.486 1.931.734 3.911.751 5.91h31.689v-16.39c-1.862-.356-3.558-1.103-4.183-2.559-.428-.997-.215-1.675.038-2.068.687-1.064 2.252-1.094 3.634-1.121.173-.003.345-.007.511-.013v-86.321c-1.599 2.476-4.006 4.354-6.954 5.277-1.294.405-2.61.603-3.909.603-3.183 0-6.268-1.19-8.706-3.448-.261-.241-.375-.602-.298-.949.916-4.154 3.712-7.456 7.565-9.076-.677-1.457-1.01-3.079-.913-4.769.021-.354.227-.671.544-.833 3.214-1.645 6.94-1.448 9.964.524 1.086.708 1.992 1.596 2.707 2.604v-29.87h-33.964v70.685c2.862-.964 5.973-.589 8.568 1.103" fill="#36393f"/><path d="m322.7383 191.9996c-.018-2.004-.309-3.983-.84-5.91h-1.872c-.53 1.926-.821 3.905-.839 5.91z" fill="#4f545c"/><path d="m324.8296 184.0899v-3.247c0-2.132-1.735-3.867-3.867-3.867-2.133 0-3.867 1.735-3.867 3.867v3.247z" fill="#36393f"/><path d="m40.83 192h2.245v-17.402h-2.245z" fill="#36393e"/><path d="m37.73 165.5479v5.879c.468.326.883.722 1.233 1.17h7.211v-7.049c0-2.328-1.894-4.221-4.221-4.221-2.329 0-4.223 1.893-4.223 4.221" fill="#4f545c"/><path d="m57.0923 182.1383h1.45v-2.883c0-2.017-1.641-3.659-3.658-3.659-2.018 0-3.659 1.642-3.659 3.659v2.883h1.45z" fill="#72767d"/><path d="m53.675 191.999h2.417v-7.861h-2.417z" fill="#4f545c"/><path d="m36.0986 178.9542h2.066v-2.883c0-2.017-1.641-3.658-3.658-3.658s-3.659 1.641-3.659 3.658v2.883h2.067z" fill="#36393e"/><path d="m33.915 191.999h1.184v-11.045h-1.184z" fill="#4f545c"/><path d="m107.9219 43.3404c1.137-2.397 1.014-5.143-.361-7.453-1.374-2.311-3.728-3.73-6.376-3.875-1.138 2.397-1.014 5.142.361 7.453 1.374 2.311 3.728 3.73 6.376 3.875m289.7978 46.6367c.872 2.543 2.885 4.415 5.448 5.1 1.604-2.114 2.046-4.826 1.174-7.37-.872-2.543-2.885-4.414-5.448-5.099-1.604 2.113-2.046 4.826-1.174 7.369" fill="#72767d"/><path d="m346.0225 75.2779c3.402-.858 6.897-.317 9.822 1.478-.543-1.707-1.649-3.199-3.223-4.225-2.252-1.467-4.991-1.705-7.432-.666.017 1.213.313 2.369.833 3.413m-19.9126 47.6402c2.253 1.469 4.992 1.705 7.432.667-.036-2.653-1.357-5.063-3.61-6.531-2.252-1.468-4.99-1.705-7.432-.666.037 2.652 1.358 5.062 3.61 6.53m-57.19-57.9649c.48 1.568 1.638 2.766 3.154 3.296.959-1.288 1.248-2.929.768-4.497-.479-1.568-1.637-2.765-3.153-3.296-.96 1.289-1.249 2.93-.769 4.497m-205.0527 69.0523c2.564.678 5.241.055 7.262-1.719 2.02-1.774 2.984-4.347 2.642-6.978-2.566-.679-5.241-.056-7.261 1.718s-2.985 4.348-2.643 6.979" fill="#4f545c"/><path d="m84.416 79.4532c-3.218-1.941-7.068-2.103-10.41-.463.108 3.721 2.046 7.051 5.264 8.993 3.219 1.943 7.069 2.103 10.411.463-.108-3.721-2.046-7.051-5.265-8.993" fill="#72767d"/><path d="m358.395 38.5396c1.146 3.541 3.939 6.195 7.573 7.157 3.634.958 7.375.036 10.123-2.473-1.146-3.541-3.94-6.196-7.573-7.157-3.634-.963-7.375-.039-10.123 2.473" fill="#4f545c"/><path d="m356.1162 79.4083c-2.857-2.385-6.635-3.142-10.224-2.02-3.587 1.124-6.259 3.899-7.247 7.488 2.858 2.386 6.637 3.143 10.224 2.019 3.587-1.123 6.26-3.899 7.247-7.487m6.0752 94.3345c6.226-.979 9.236-5.504 9.923-9.081.315-1.64.066-2.661-.147-2.976-2.683 1.135-5.484 1.735-8.097 1.735-1.968 0-3.828-.334-5.45-1.021v7.074c1.782-.498 3.579-1.283 4.251-2.294.307-.459.927-.583 1.387-.279.46.306.585.926.279 1.386-1.432 2.153-5.219 3.136-6.78 3.458-.456.095-1.017.105-1.611.117-.526.01-1.578.03-1.943.195.012.047.033.114.072.205.687 1.603 5.645 1.87 8.116 1.481" fill="#72767d"/><g fill="#36393e"><path d="m244.772 196.9996c-1.106 0-2.162-.215-3.136-.592v3.13c0 5.674-2.209 11.007-6.222 15.02-.006.006-.011.013-.017.019 4.08-.343 8.036-.784 11.844-1.312v-16.626c-.784.232-1.611.361-2.469.361"/><path d="m239.5532 199.5377v-4.287c-.117-.087-.236-.171-.348-.263-.986 1.897-2.236 3.666-3.791 5.219-3.622 3.624-5.615 8.436-5.615 13.554v1.221c.879-.053 1.752-.113 2.622-.175.474-.594.971-1.172 1.516-1.717 3.622-3.623 5.616-8.435 5.616-13.552m-56.7011-.5205v-2.097c-1.587-.204-3.04-.834-4.243-1.773v17.62c3.413.533 6.958.993 10.618 1.375-.07-.073-.131-.152-.202-.223-3.98-3.98-6.173-9.273-6.173-14.902m90.0742 2.5908c-1.578 0-2.863-1.285-2.863-2.863v-21.716c0-1.578 1.285-2.864 2.863-2.864 1.579 0 2.864 1.286 2.864 2.864v21.716c0 1.578-1.285 2.863-2.864 2.863zm5.207-26.164c0-2.871-2.335-5.206-5.207-5.206s-5.207 2.335-5.207 5.206v24.813c0 2.872 2.335 5.207 5.207 5.207s5.207-2.335 5.207-5.207z"/><path d="m190.1899 194.377c-1.371 1.399-3.206 2.338-5.255 2.565v2.075c0 5.074 1.976 9.844 5.563 13.429.627.628 1.19 1.299 1.723 1.99.783.071 1.568.141 2.361.205v-8.131c0-4.487-1.553-8.731-4.392-12.133m-26.1977-9.4301c.557 0 1.011-.454 1.011-1.011v-15.105c-.684-.163-1.357-.33-2.023-.5v15.605c0 .557.454 1.011 1.012 1.011"/><path d="m163.9922 191.6563c3.095 0 5.611-2.518 5.611-5.611v-16.198c-.851-.174-1.689-.356-2.517-.54v14.629c0 1.706-1.388 3.093-3.094 3.093-1.707 0-3.094-1.387-3.094-3.093v-16.158c-.856-.234-1.696-.473-2.518-.718v18.985c0 3.093 2.518 5.611 5.612 5.611m34.8266-12.5346v-.06c-1.074.949-2.468 1.543-4.01 1.543-.749 0-1.462-.146-2.122-.399v2.304c.617.387 1.341.621 2.122.621 2.211 0 4.01-1.798 4.01-4.009m85.6924-4.4644v28.201c1.468-.797 2.768-1.622 3.927-2.468v-35.75c0-.575.466-1.041 1.042-1.041.575 0 1.041.466 1.041 1.041v34.062c2.429-2.247 3.753-4.627 3.753-7.08v-37.648c-2.745 3.932-8.237 7.498-15.846 10.496 3.62 1.961 6.083 5.791 6.083 10.187m-54.3657 4.5874c.986-1.873 2.253-3.608 3.792-5.146.26-.26.503-.532.746-.804-.013-.013-.023-.029-.036-.042-.777.06-1.561.114-2.348.167-1.029 1.81-1.762 3.77-2.154 5.825m-.3467 9.8735v15.501c1.028-2.151 2.403-4.145 4.139-5.881 1.584-1.583 2.835-3.403 3.766-5.368-1.037-1.435-1.655-3.19-1.655-5.09v-11.573c0-.541-.108-1.053-.268-1.541-.125.132-.238.271-.367.4-3.622 3.623-5.615 8.433-5.615 13.552m-31.0014-14.3935c-.008-.142-.041-.276-.062-.414-.641-.265-1.263-.564-1.866-.895-.922-.062-1.845-.125-2.754-.196-.881.901-1.428 2.13-1.428 3.487v1.196c.614.389 1.34.619 2.122.619 2.137 0 3.874-1.687 3.988-3.797"/><path d="m249.3237 195.7032v17.265c1.683-.251 3.329-.522 4.946-.807v-27.989c0-.576.466-1.042 1.042-1.042.575 0 1.041.466 1.041 1.042v27.61c1.705-.322 3.37-.662 4.989-1.019v-15.486c0-.576.466-1.042 1.041-1.042.576 0 1.042.466 1.042 1.042v15.006c3.546-.838 6.872-1.758 9.912-2.757-.137.008-.272.021-.41.021-4.019 0-7.29-3.271-7.29-7.29v-24.813c0-4.018 3.271-7.289 7.29-7.289s7.289 3.271 7.289 7.289v24.813c0 2.423-1.193 4.568-3.017 5.894 1.874-.715 3.63-1.456 5.23-2.229v-29.265c0-4.321-2.905-7.972-6.863-9.117-3.003 1.058-6.292 2.03-9.818 2.914-1.444 1.666-2.323 3.832-2.323 6.203v14.278c0 .576-.466 1.041-1.042 1.041-.575 0-1.041-.465-1.041-1.041v-14.278c0-1.981.502-3.848 1.383-5.48-2.052.466-4.177.903-6.372 1.309v6.099c0 .576-.466 1.042-1.041 1.042-.576 0-1.042-.466-1.042-1.042v-5.725c-.259.045-.517.089-.778.133v17.287c0 3.138-1.673 5.887-4.168 7.423"/><path d="m273.7075 177.0289c0-.431-.35-.781-.781-.781-.423 0-.781.358-.781.781v21.716c0 .423.358.781.781.781.431 0 .781-.351.781-.781zm-134.9389-19.1099c-1.585-1.266-2.863-2.583-3.813-3.944v37.648c0 2.472 1.347 4.869 3.813 7.132zm12.6889 6.814c-1.94-.744-3.733-1.527-5.4-2.34v20.689c0 .575-.466 1.041-1.041 1.041-.576 0-1.041-.466-1.041-1.041v-21.763c-1.114-.607-2.167-1.228-3.124-1.867v40.984c.939.681 1.982 1.346 3.124 1.996v-13.552c0-.575.465-1.041 1.041-1.041.575 0 1.041.466 1.041 1.041v14.667c1.645.828 3.445 1.625 5.4 2.387zm47.3613 28.3677v-3.771c0-.576.466-1.041 1.042-1.041.575 0 1.041.465 1.041 1.041v3.771c0 .575-.466 1.041-1.041 1.041-.576 0-1.042-.466-1.042-1.041zm5.207-17.443c-1.073-.111-2.112-.329-3.124-.612v4.076c0 3.358-2.734 6.092-6.093 6.092-.747 0-1.46-.142-2.122-.389v3.455c0 1.613-.448 3.119-1.214 4.416 3.346 3.834 5.191 8.678 5.191 13.814v8.286c2.418.174 4.873.314 7.362.418zm-33.8241 33.9273c0 .576-.466 1.041-1.042 1.041-.575 0-1.041-.465-1.041-1.041v-4.513c0-2.777-2.258-5.034-5.034-5.034-2.775 0-5.032 2.257-5.032 5.034 0 .575-.466 1.041-1.041 1.041-.576 0-1.042-.466-1.042-1.041 0-3.924 3.192-7.117 7.115-7.117 3.925 0 7.117 3.193 7.117 7.117zm6.325-16.775c-.808-1.323-1.283-2.87-1.283-4.53v-17.369c-1.206-.205-2.391-.421-3.557-.645v15.779c0 4.243-3.452 7.694-7.694 7.694-4.243 0-7.695-3.451-7.695-7.694v-19.621c-.944-.302-1.862-.612-2.757-.928v41.221c3.053 1.096 6.428 2.109 10.065 3.031v-.338c0-1.532-1.245-2.776-2.776-2.776-.576 0-1.042-.466-1.042-1.042 0-.575.466-1.041 1.042-1.041 2.68 0 4.859 2.18 4.859 4.859v.846c3.41.809 7.03 1.54 10.838 2.178zm39.6481 12.2335c-.576 0-1.042-.466-1.042-1.042v-22.356c0-.575.466-1.041 1.042-1.041s1.042.466 1.042 1.041v22.356c0 .576-.466 1.042-1.042 1.042zm11.541-22.173c0-2.919.594-5.743 1.708-8.348-1.686.637-3.48 1.04-5.353 1.171v13.636c0 .576-.465 1.042-1.041 1.042-.575 0-1.041-.466-1.041-1.042v-13.569h-9.979v7.321c0 .576-.466 1.042-1.042 1.042-.575 0-1.041-.466-1.041-1.042v-7.321h-3.818v39.535c1.265.042 2.538.075 3.818.098v-21.216c0-.575.466-1.041 1.041-1.041.576 0 1.042.466 1.042 1.041v21.243c.867.009 1.732.02 2.605.02.174 0 .345-.003.518-.003v-2.757c0-.575.466-1.041 1.042-1.041s1.042.466 1.042 1.041v2.74c1.601-.016 3.193-.044 4.772-.09v-19.515c0-.576.466-1.042 1.041-1.042.576 0 1.041.466 1.041 1.042v19.443c1.223-.046 2.438-.099 3.645-.162z"/></g><path d="m176.5269 192.8097v19.624c.687.115 1.385.224 2.083.333v-17.62c-.828-.646-1.533-1.438-2.083-2.337m14.9462-.1138c-.361.611-.79 1.177-1.283 1.681 2.839 3.402 4.391 7.647 4.391 12.133v8.131c.69.056 1.387.105 2.083.155v-8.286c0-5.136-1.845-9.98-5.191-13.814m-6.538 6.3213v-2.075c-.318.036-.641.057-.968.057-.379 0-.749-.032-1.115-.079v2.097c0 5.629 2.193 10.922 6.173 14.902.071.071.132.15.202.223.991.103 1.987.202 2.994.293-.533-.69-1.097-1.361-1.724-1.989-3.586-3.585-5.562-8.355-5.562-13.429m-24.1055 5.5342c-.576 0-1.042.465-1.042 1.041s.466 1.042 1.042 1.042c1.531 0 2.776 1.244 2.776 2.775v.338c.684.174 1.381.342 2.083.509v-.847c0-2.678-2.179-4.858-4.859-4.858" fill="#4f545c"/><path d="m163.085 197.9552c-3.923 0-7.115 3.193-7.115 7.117 0 .575.466 1.041 1.041 1.041s1.041-.466 1.041-1.041c0-2.777 2.258-5.034 5.033-5.034s5.034 2.257 5.034 5.034v4.513c0 .576.466 1.041 1.041 1.041.576 0 1.042-.465 1.042-1.041v-4.513c0-3.924-3.193-7.117-7.117-7.117m-9.5445-32.4595c-.708-.25-1.407-.503-2.083-.763v41.201c.679.265 1.369.528 2.083.784zm10.4517 28.2432c4.243 0 7.694-3.451 7.694-7.694v-15.779c-.704-.135-1.393-.277-2.083-.418v16.197c0 3.093-2.516 5.611-5.611 5.611-3.094 0-5.612-2.518-5.612-5.611v-18.984c-.704-.209-1.404-.42-2.083-.637v19.621c0 4.243 3.452 7.694 7.695 7.694" fill="#4f545c"/><path d="m163.9922 187.0294c1.706 0 3.094-1.387 3.094-3.093v-14.629c-.701-.156-1.4-.313-2.083-.476v15.105c0 .557-.454 1.01-1.011 1.01-.558 0-1.012-.453-1.012-1.01v-15.605c-.706-.18-1.396-.366-2.082-.553v16.158c0 1.706 1.387 3.093 3.094 3.093m-18.9756-2.9063c.575 0 1.041-.466 1.041-1.042v-20.688c-.721-.353-1.415-.71-2.083-1.074v21.762c0 .576.466 1.042 1.042 1.042m1.041 4.7574c0-.576-.466-1.042-1.041-1.042-.576 0-1.042.466-1.042 1.042v13.552c.663.377 1.356.749 2.083 1.115zm-5.2065-29.4288c-.75-.501-1.433-1.014-2.083-1.533v40.836c.621.57 1.323 1.13 2.083 1.681zm65.2573 16.3091h-.11c-.666 0-1.324-.036-1.973-.104v39.557c.693.029 1.385.059 2.083.082zm-5.2065 3.3609v-4.076c-.74-.206-1.466-.444-2.167-.735.022.138.055.272.063.414-.114 2.11-1.851 3.797-3.989 3.797-.782 0-1.507-.23-2.122-.619v2.303c.66.253 1.373.399 2.122.399 1.542 0 2.936-.594 4.01-1.543v.06c0 2.211-1.799 4.009-4.01 4.009-.781 0-1.505-.234-2.122-.621v2.315c.662.247 1.375.389 2.122.389 3.359 0 6.093-2.734 6.093-6.092m10.0664 14.0146c-.576 0-1.042.466-1.042 1.042v21.215c.692.013 1.388.02 2.084.027v-21.242c0-.576-.466-1.042-1.042-1.042m0-9.0132c.576 0 1.042-.466 1.042-1.042v-7.32h-2.084v7.32c0 .576.466 1.042 1.042 1.042m6.248-2.4775c0-.575-.466-1.041-1.042-1.041-.575 0-1.041.466-1.041 1.041v22.356c0 .576.466 1.042 1.041 1.042.576 0 1.042-.466 1.042-1.042zm-1.0415 29.9936c-.576 0-1.042.466-1.042 1.041v2.757c.698-.002 1.39-.01 2.084-.017v-2.74c0-.575-.466-1.041-1.042-1.041m-15.2729-18.5385v-3.771c0-.576-.466-1.041-1.042-1.041-.575 0-1.041.465-1.041 1.041v3.771c0 .575.466 1.041 1.041 1.041.576 0 1.042-.466 1.042-1.041m22.1279-2.7295c.576 0 1.042-.466 1.042-1.042v-13.636c-.443.031-.884.068-1.334.068h-.749v13.568c0 .576.466 1.042 1.041 1.042m0 4.4028c-.575 0-1.041.466-1.041 1.042v19.514c.697-.02 1.39-.046 2.083-.072v-19.442c0-.576-.466-1.042-1.042-1.042m12.3843 5.4326c1.555-1.553 2.805-3.322 3.791-5.219-.568-.472-1.069-1.018-1.501-1.617-.931 1.964-2.183 3.785-3.767 5.368-1.735 1.736-3.11 3.73-4.138 5.881v-15.501c0-5.12 1.993-9.93 5.615-13.552.129-.129.242-.269.367-.401-.231-.704-.601-1.342-1.098-1.871-.243.272-.486.544-.746.804-1.538 1.538-2.806 3.274-3.792 5.146.393-2.055 1.126-4.015 2.155-5.825-.167.012-.332.025-.499.036-.76.414-1.56.758-2.378 1.067-1.113 2.605-1.707 5.429-1.707 8.348v32.226c.696-.036 1.392-.073 2.083-.115v-1.221c0-5.117 1.993-9.929 5.615-13.554m6.2216-.6689v-3.13c-.75-.291-1.449-.682-2.083-1.157v4.287c0 5.117-1.993 9.929-5.615 13.552-.545.545-1.042 1.123-1.516 1.717.998-.072 1.99-.148 2.976-.23.006-.006.01-.013.016-.019 4.013-4.013 6.222-9.346 6.222-15.02m5.605-2.8994v16.626c.698-.096 1.396-.193 2.083-.296v-17.265c-.645.397-1.342.715-2.083.935m9.1118-12.4663c0-.576-.466-1.042-1.041-1.042-.576 0-1.042.466-1.042 1.042v27.989c.701-.124 1.396-.249 2.083-.379zm-1.041-6.545c.575 0 1.041-.466 1.041-1.042v-6.099c-.689.127-1.38.253-2.083.374v5.725c0 .576.466 1.042 1.042 1.042m27.1172-2.9697v29.265c.723-.349 1.419-.703 2.083-1.064v-28.201c0-4.396-2.463-8.226-6.084-10.187-.926.365-1.875.723-2.862 1.07 3.958 1.145 6.863 4.796 6.863 9.117m-21.0869 14.2778c0 .576.466 1.042 1.041 1.042.576 0 1.042-.466 1.042-1.042v-14.278c0-2.37.879-4.536 2.323-6.202-.989.248-1.996.489-3.023.722-.881 1.633-1.383 3.499-1.383 5.48zm1.041 5.3003c-.575 0-1.041.466-1.041 1.042v15.485c.705-.155 1.395-.317 2.083-.479v-15.006c0-.576-.466-1.042-1.042-1.042" fill="#4f545c"/><path d="m272.9263 205.4644c-2.872 0-5.207-2.335-5.207-5.207v-24.813c0-2.872 2.335-5.207 5.207-5.207s5.207 2.335 5.207 5.207v24.813c0 2.872-2.335 5.207-5.207 5.207m7.29-5.207v-24.813c0-4.019-3.271-7.289-7.29-7.289s-7.289 3.27-7.289 7.289v24.813c0 4.019 3.27 7.29 7.289 7.29.139 0 .274-.014.411-.021 1.347-.443 2.625-.905 3.861-1.375 1.825-1.327 3.018-3.471 3.018-5.894" fill="#4f545c"/><path d="m272.9263 199.5255c-.423 0-.781-.358-.781-.781v-21.716c0-.422.358-.78.781-.78.432 0 .781.349.781.78v21.716c0 .431-.349.781-.781.781zm2.864-22.497c0-1.578-1.285-2.863-2.864-2.863-1.578 0-2.863 1.285-2.863 2.863v21.716c0 1.578 1.285 2.864 2.863 2.864 1.579 0 2.864-1.286 2.864-2.864zm14.7312-12.3878c0-.576-.466-1.042-1.042-1.042-.575 0-1.041.466-1.041 1.042v35.75c.76-.554 1.464-1.116 2.083-1.688zm-83.4048-88.4184 6.559 11.961c.221.403.602.447.755.447s.534-.044.755-.447l6.559-11.961c1.661-3.028 1.265-6.824-.985-9.445-1.586-1.847-3.893-2.908-6.329-2.908s-4.743 1.061-6.329 2.908c-2.25 2.621-2.646 6.417-.985 9.445" fill="#4f545c"/><path d="m247.3677 171.9088h-11.236c1.185 1.254 1.917 2.941 1.917 4.798v11.573c0 3.705 3.015 6.72 6.72 6.72 3.708 0 6.723-3.015 6.723-6.72v-16.835c-1.33.296-2.707.464-4.124.464m-54.7637 0h-11.236c-1.418 0-2.795-.168-4.124-.464v16.835c0 3.705 3.014 6.72 6.72 6.72 3.708 0 6.723-3.015 6.723-6.72v-11.573c0-1.857.732-3.544 1.917-4.798" fill="#72767d"/><path d="m168.3677 109.0904c3.402-3.203 7.97-5.182 13-5.182h66c5.03 0 9.598 1.979 13 5.182v-.729c0-7.169-5.832-13-13-13h-66c-7.168 0-13 5.831-13 13z" fill="#4f545c"/><path d="m245.7974 140.3311c.576-.597 1.526-.611 2.121-.036 1.74 1.682 5.156 1.683 6.896 0 .595-.575 1.545-.561 2.121.036.576.596.56 1.545-.036 2.121-1.448 1.4-3.49 2.099-5.533 2.099s-4.085-.699-5.533-2.099c-.596-.576-.612-1.525-.036-2.121m-62.895 2.121c-1.448 1.4-3.491 2.1-5.533 2.1-2.043 0-4.085-.7-5.533-2.1-.596-.576-.612-1.526-.036-2.121.576-.597 1.526-.611 2.121-.036 1.74 1.683 5.156 1.682 6.896 0 .595-.575 1.545-.561 2.121.036.576.596.56 1.545-.036 2.121m-18.467-20.883h2.342c.552 0 1 .448 1 1 0 .553-.448 1-1 1h-6.993c-4.411 0-8 3.589-8 8v10.542c0 4.411 3.589 8 8 8h6.993c.552 0 1 .448 1 1s-.448 1-1 1h-2.41v.798c0 9.374 7.626 17 17 17h10.947c-3.284-3.417-5.316-8.046-5.316-13.148v-14.571c0-4.411 3.589-8 8-8h27.421c.552 0 1 .448 1 1h4.247c0-.552.448-1 1-1h5.071c4.411 0 8 3.589 8 8v2.744c.529-.074 1.065-.125 1.614-.125 6.467 0 11.73 5.262 11.73 11.73s-5.263 11.73-11.73 11.73h-5.532c-.437.572-.9 1.122-1.398 1.64h10.946c9.374 0 17-7.626 17-17v-.798h-1.993c-.552 0-1-.448-1-1s.448-1 1-1h6.993c4.411 0 8-3.589 8-8v-10.542c0-4.411-3.589-8-8-8h-6.993c-.552 0-1-.447-1-1 0-.552.448-1 1-1h1.925c-.687-8.748-8.01-15.66-16.932-15.66h-66c-8.922 0-16.245 6.912-16.932 15.66" fill="#72767d"/><path d="m222.4194 136.19h-27.421c-3.308 0-6 2.691-6 6v3.867c1.226-2.043 3.457-3.422 6-3.422h38.739c2.311 0 4.365 1.141 5.641 2.881.12-.043.237-.092.359-.131v-3.195c0-3.309-2.692-6-6-6h-5.071c-.552 0-1-.448-1-1h-4.247c0 .552-.448 1-1 1" fill="#72767d"/><path d="m208.9985 162.2691c1.65 0 3 1.35 3 3s-1.35 3-3 3h-6c-1.65 0-3-1.35-3-3s1.35-3 3-3zm24.739-19.634h-38.739c-2.543 0-4.774 1.379-6 3.422v10.704c0 9.374 7.626 17 17 17h16.739c4.932 0 9.367-2.125 12.476-5.492h-8.959c-.067 0-.129-.021-.193-.033-.107.012-.213.033-.324.033h-6c-1.65 0-3-1.35-3-3s1.35-3 3-3h6c1.297 0 2.398.84 2.814 1.999 1.505-1.567 3.069-4.066 3.069-7.729 0-5.072 3.242-9.39 7.758-11.023-1.276-1.74-3.33-2.881-5.641-2.881z" fill="#b9bbbe"/><path d="m225.7373 162.2691h-6c-1.65 0-3 1.35-3 3s1.35 3 3 3h6c.111 0 .217-.021.325-.033-.38-.076-.694-.355-.783-.744-.104-.455.121-.921.541-1.123.109-.055 1.397-.713 2.731-2.101-.416-1.159-1.517-1.999-2.814-1.999m-22.7388 0c-1.65 0-3 1.35-3 3s1.35 3 3 3h6c1.65 0 3-1.35 3-3s-1.35-3-3-3zm-47.2143-21.1582c0 2.761 2.239 5 5 5h2.993c.553 0 1-.448 1-1v-16.541c0-.552-.447-1-1-1h-2.993c-2.761 0-5 2.238-5 5zm109.5903 5h2.993c2.761 0 5-2.239 5-5v-8.541c0-2.762-2.239-5-5-5h-2.993c-.552 0-1 .448-1 1v16.541c0 .552.448 1 1 1" fill="#4f545c"/><path d="m229.3691 166.2691h13.982c5.365 0 9.73-4.365 9.73-9.73s-4.365-9.73-9.73-9.73-9.731 4.365-9.731 9.73c0 4.817-2.299 7.944-4.251 9.73" fill="#b9bbbe"/><path d="m372.5381 143.0059c.282-.207.625-.281.969-.281.598 0 1.204.223 1.514.357 1.684.728 2.964 2.183 3.103 3.086.222 1.441-.53 3.125-1.872 4.191-1.166.924-2.493 1.19-3.643.73-.166-.067-.645-.615-.861-2.322-.346-2.739.314-5.411.79-5.761m-.674 9.938c.604.243 1.241.362 1.886.362 1.286-.001 2.602-.473 3.746-1.381 1.915-1.521 2.938-3.9 2.605-6.062-.296-1.923-2.429-3.814-4.286-4.617-1.729-.747-3.314-.697-4.461.148-1.594 1.172-1.891 5.242-1.59 7.624.269 2.125.995 3.483 2.1 3.926m-11.6004 2.1734c-.904.223-1.489.847-1.606 1.713v.001c-.072.536.082 1.553 1.918 2.345.632.272 1.663.58 2.615.58.732 0 1.416-.182 1.837-.702.303-.374.676-1.189-.22-2.455-.763-1.075-3.1-1.834-4.544-1.482m-30.3316-38.0635c2.252 1.468 3.574 3.878 3.61 6.531-2.44 1.038-5.179.802-7.432-.667-1.707-1.112-2.879-2.766-3.363-4.656-.285-1.116.503-2.238 1.641-2.416 1.901-.299 3.859.11 5.544 1.208m-8.97 48.859c.148.087.31.149.494.149.552 0 1-.447 1-1v-42.888c.693.929 1.543 1.756 2.561 2.42 1.664 1.084 3.538 1.631 5.423 1.631 1.544 0 3.095-.367 4.542-1.107.313-.16.524-.485.544-.836.205-3.604-1.478-6.933-4.502-8.903-1.946-1.269-4.183-1.798-6.387-1.575-1.178.119-2.181-.864-2.181-2.049v-68.164-2.591c0-.552-.448-1-1-1s-1 .448-1 1v4 120.062c0 .369.209.678.506.851m-278.737-84.5236c.552 0 1-.448 1-1v-1.749c0-.552-.448-1-1-1s-1 .448-1 1v1.749c0 .552.448 1 1 1m121.6562 13.9717c.398 0 .735-.237.896-.573.062-.131.104-.273.104-.427v-93.361c0-.553-.448-1-1-1s-1 .447-1 1v24 69.361c0 .552.448 1 1 1m193.5386-68.3598c.552 0 1-.448 1-1v-2.283c0-.552-.448-1-1-1s-1 .448-1 1v2.283c0 .552.448 1 1 1m41.4741 55.6069c2.563.685 4.576 2.556 5.448 5.1.011.034.023.068.034.102 1.393 4.241-5.141 6.452-6.63 2.243l-.026-.076c-.872-2.543-.43-5.256 1.174-7.369m4.466 14.563c.063.013.126.019.189.019.285 0 .56-.123.752-.341 2.381-2.714 3.104-6.374 1.933-9.79-1.171-3.415-3.986-5.863-7.532-6.546-.35-.07-.707.055-.941.323-2.381 2.714-3.104 6.374-1.933 9.79 1.17 3.415 3.986 5.862 7.532 6.545m-133.6715-36.7144c1.516.53 2.674 1.728 3.154 3.296s.191 3.208-.768 4.497c-1.516-.531-2.675-1.729-3.155-3.296-.48-1.568-.19-3.209.769-4.497m2.513 9.907c.073.016.148.025.221.025.273 0 .538-.112.73-.316 1.754-1.871 2.353-4.453 1.602-6.906-.751-2.452-2.692-4.256-5.193-4.824-.346-.077-.708.031-.951.291-1.755 1.871-2.354 4.452-1.603 6.905s2.693 4.256 5.194 4.825m-216.7396-19.6877c.995-1.303 2.513-2.009 4.104-1.994.451 1.542.151 3.181-.844 4.484s-2.518 2.021-4.103 1.993c-.451-1.541-.152-3.18.843-4.483m-1.697 6.421c.322.043.641.064.958.064 2.189 0 4.229-1.001 5.589-2.781 1.557-2.038 1.893-4.667.899-7.032-.138-.327-.439-.557-.791-.604-2.542-.336-4.991.68-6.547 2.718-1.557 2.039-1.893 4.667-.899 7.032.138.327.439.557.791.603m12.7449 69.93c.933-.819 2.005-1.393 3.141-1.707 2.425-.669 4.553 1.754 3.576 4.072-.458 1.087-1.165 2.076-2.098 2.895-2.021 1.774-4.698 2.397-7.262 1.719-.341-2.631.623-5.205 2.643-6.979m-3.85 8.701c1.076.368 2.175.549 3.262.549 2.364 0 4.668-.855 6.526-2.487 2.714-2.383 3.905-5.918 3.187-9.457-.07-.348-.32-.632-.656-.747-3.416-1.168-7.075-.444-9.788 1.938-2.714 2.383-3.905 5.918-3.187 9.457.07.348.32.632.656.747m219.4906-58.3704c2.288-2.983 5.814-4.537 9.522-4.231 1.258 3.503.67 7.311-1.618 10.294s-5.814 4.537-9.523 4.231c-1.257-3.503-.669-7.312 1.619-10.294m-2.464 12.213c.596.08 1.189.12 1.776.12 3.983 0 7.697-1.817 10.179-5.053 2.848-3.713 3.471-8.508 1.666-12.825-.137-.328-.437-.558-.789-.605-4.639-.621-9.107 1.22-11.955 4.933s-3.471 8.507-1.666 12.825c.137.328.437.558.789.605" fill="#202225"/><path d="m354.0752 172.2613c-.039-.091-.06-.158-.071-.205.364-.165 1.416-.185 1.943-.195.593-.011 1.154-.022 1.61-.116 1.561-.323 5.349-1.305 6.78-3.458.306-.46.181-1.081-.279-1.386s-1.08-.181-1.386.278c-.272.409-.727.781-1.291 1.111-1.311.769-2.961-.235-2.961-1.755v-4.135c1.622.686 3.482 1.021 5.45 1.021 2.614 0 5.414-.601 8.097-1.735.213.315.462 1.336.148 2.975-.687 3.578-3.698 8.102-9.924 9.081-2.471.389-7.429.122-8.116-1.481zm14.443-136.195c3.117.825 5.616 2.896 6.987 5.703.413.846.134 1.897-.642 2.427-2.581 1.761-5.778 2.322-8.895 1.5-3.118-.825-5.617-2.896-6.987-5.704-.413-.845-.135-1.896.641-2.426 2.581-1.763 5.778-2.326 8.896-1.5zm-10.098 108.231v-4.45c.248-.346.563-.614.957-.704.094-.022.191-.032.291-.032.304 0 .634.097.953.285.63.371 1.192 1.114 1.046 1.816-.175.846-1.317 2.425-2.069 2.864-.517.302-.91.371-1.178.221zm4.306-11.69c.833-.205 1.707-.306 2.607-.306 2.642 0 5.502.87 8.161 2.522 3.679 2.288 6.342 5.548 7.5 9.181 2.116 6.642-2.883 11.393-5.13 13.128-5.455 4.208-12.98 5.48-17.444 3.034v-13.813c.096.011.188.027.293.027.527 0 1.16-.149 1.893-.576 1.257-.733 2.725-2.767 3.019-4.185.308-1.48-.492-3.066-1.991-3.947 0-.001 0-.001 0-.001-.868-.508-1.827-.677-2.704-.477-.176.04-.345.097-.51.165v-2.431c1.239-1.137 2.676-1.92 4.306-2.321zm-45.63 51.483v-3.247c0-2.133 1.734-3.867 3.866-3.867 2.133 0 3.867 1.734 3.867 3.867v3.247zm2.091 7.909c.018-2.005.309-3.984.839-5.909h1.872c.531 1.926.822 3.905.84 5.909zm-51.404-26.248c-2.548.693-4.65-1.944-3.456-4.298 1.304-2.568 2.04-5.471 2.04-8.545v-.797h3c5.523 0 10-4.477 10-10v-2.881c0-2.256 2.399-3.699 4.4-2.659 6.659 3.461 10.507 7.433 10.507 11.619 0 6.868-10.327 13.168-26.491 17.561zm26.491 25.871c0 2.453-1.324 4.833-3.753 7.08-.618.572-1.323 1.134-2.083 1.688-1.159.846-2.459 1.671-3.927 2.468-.663.361-1.36.715-2.082 1.064-1.601.773-3.356 1.514-5.23 2.229-1.237.47-2.515.932-3.862 1.375-3.04.999-6.366 1.919-9.913 2.757-.687.163-1.378.324-2.082.479-1.62.358-3.285.698-4.99 1.02-.687.129-1.382.255-2.082.378-1.617.286-3.263.557-4.946.808-.688.103-1.385.2-2.083.296-3.808.529-7.764.969-11.844 1.312-.985.082-1.977.159-2.976.23-.87.062-1.742.122-2.622.176-.691.042-1.387.078-2.083.114-1.207.063-2.422.117-3.645.162-.693.026-1.385.052-2.082.072-1.58.046-3.172.074-4.773.09-.693.007-1.386.015-2.083.017-.173 0-.345.004-.518.004-.873 0-1.739-.012-2.605-.021-.696-.007-1.392-.014-2.083-.027-1.28-.023-2.554-.055-3.819-.097-.698-.024-1.39-.054-2.083-.082-2.489-.104-4.943-.245-7.361-.418-.696-.051-1.393-.099-2.083-.155-.793-.064-1.577-.134-2.36-.206-1.007-.091-2.003-.19-2.994-.293-3.66-.382-7.205-.842-10.618-1.376-.698-.109-1.396-.217-2.082-.333-3.809-.637-7.428-1.368-10.839-2.177-.702-.167-1.399-.335-2.082-.509-3.637-.922-7.013-1.935-10.066-3.03-.714-.256-1.403-.518-2.083-.783-1.954-.762-3.755-1.56-5.4-2.387-.727-.366-1.419-.738-2.082-1.115-1.141-.65-2.185-1.316-3.124-1.997-.76-.551-1.462-1.111-2.083-1.68-2.466-2.263-3.813-4.661-3.813-7.133v-31.992c0-1.945 2.242-2.973 3.758-1.755.019.014.037.029.055.044.65.519 1.333 1.031 2.083 1.532.957.64 2.01 1.26 3.124 1.868.667.363 1.361.721 2.082 1.073 1.667.813 3.46 1.597 5.4 2.341.677.259 1.375.512 2.083.762.895.317 1.813.627 2.757.929.679.217 1.379.427 2.083.636.822.245 1.662.484 2.518.718.686.187 1.376.373 2.082.553.666.169 1.339.337 2.023.5.683.163 1.382.32 2.083.476.828.184 1.666.366 2.517.54.69.142 1.379.284 2.083.419 1.167.224 2.351.439 3.557.645v17.369c0 1.66.475 3.207 1.284 4.529.549.899 1.255 1.691 2.082 2.338 1.203.939 2.656 1.569 4.243 1.773.366.047.736.079 1.115.079.327 0 .65-.021.968-.057 2.049-.227 3.884-1.166 5.255-2.565.493-.504.922-1.071 1.283-1.681.766-1.298 1.214-2.804 1.214-4.416v-3.456-2.315-2.304-2.303-1.195c0-1.357.547-2.586 1.428-3.488.909.072 1.832.134 2.754.196.603.332 1.226.63 1.866.896.7.291 1.427.528 2.167.735 1.012.282 2.051.5 3.123.611.649.067 1.307.104 1.973.104h.11 3.819 2.083 9.979.748c.45 0 .892-.037 1.334-.068 1.873-.131 3.667-.534 5.352-1.17.818-.309 1.618-.654 2.378-1.068l.009-.003c.951-.063 1.9-.128 2.838-.2.012.013.022.03.035.043.496.528.867 1.166 1.098 1.871.159.488.268 1 .268 1.541v11.573c0 1.9.618 3.655 1.654 5.09.433.599.934 1.145 1.502 1.617.112.093.231.176.348.263.634.476 1.332.866 2.083 1.157.974.377 2.029.592 3.136.592.858 0 1.685-.129 2.469-.361.741-.22 1.438-.538 2.083-.935 2.495-1.536 4.168-4.285 4.168-7.423v-17.287c.26-.044.519-.088.778-.133.702-.121 1.393-.247 2.082-.374 2.196-.406 4.32-.843 6.372-1.309 1.028-.233 2.035-.475 3.024-.723 3.526-.884 6.814-1.857 9.817-2.914.987-.347 1.937-.705 2.863-1.07 5.029-1.981 9.133-4.211 12.13-6.63 1.496-1.207 3.716-.137 3.716 1.785zm-144.49-52.352v2.841c0 5.523 4.477 10 10 10h2.583v.797c0 3.016.708 5.867 1.964 8.401 1.171 2.361-.941 4.978-3.481 4.274-15.819-4.385-25.895-10.611-25.895-17.393 0-4.169 3.816-8.126 10.426-11.577 2-1.044 4.403.4 4.403 2.657zm42.82 32.638c-1.185 1.255-1.917 2.941-1.917 4.799v11.334c0 3.416-2.449 6.465-5.837 6.901-4.099.527-7.607-2.666-7.607-6.662v-13.403c0-1.691 1.4-3.095 3.088-2.998.343.019.688.029 1.036.029zm39.222-8.642c1.025-1.722 1.794-3.942 1.794-6.726.001-3.789 2.059-7.364 5.545-8.849 7.281-3.101 14.306 2.433 13.899 9.426-.302 5.198-4.829 9.152-10.035 9.152h-9.479c-1.545 0-2.514-1.676-1.724-3.003zm4.306 8.642h11.235c.349 0 .694-.01 1.037-.029 1.688-.097 3.088 1.307 3.088 2.998v13.164c0 3.416-2.449 6.465-5.836 6.901-4.099.528-7.607-2.665-7.607-6.662v-11.573c0-1.858-.733-3.544-1.917-4.799zm-84.348-40.339c0-4.418 3.582-8 8-8h6.993c.552 0 1-.448 1-1s-.448-1-1-1h-.416c-1.042 0-1.857-.946-1.655-1.967 1.543-7.796 8.42-13.694 16.661-13.694h66c8.242 0 15.119 5.898 16.662 13.694.202 1.021-.613 1.967-1.655 1.967-.552 0-1 .448-1 1s.448 1 1 1h6.993c4.419 0 8 3.582 8 8v10.542c0 4.418-3.581 8-8 8h-6.993c-.552 0-1 .447-1 1 0 .552.448 1 1 1h1.196c.44 0 .797.357.797.797 0 9.389-7.611 17-17 17h-10.946c.498-.518.962-1.067 1.399-1.639h5.187c6.105 0 11.448-4.522 12.021-10.599.656-6.974-4.836-12.861-11.677-12.861h-.085c-.84.001-1.529-.687-1.529-1.528v-1.091c0-4.419-3.581-8-8-8h-5.071c-.552 0-1 .447-1 1 0 .552.448 1 1 1h5.071c3.314 0 6 2.686 6 6v1.208c-.572.95-1.02 1.696-1.592 2.646-3.862 1.921-6.525 5.898-6.525 10.495 0 3.662-1.564 6.162-3.068 7.729-1.334 1.388-2.623 2.046-2.732 2.1-.42.203-.644.669-.54 1.124.088.389.402.668.782.744.064.012.125.033.192.033h8.959c-3.108 3.367-7.543 5.492-12.476 5.492h-16.739c-9.388 0-17-7.612-17-17v-10.705-3.866c0-3.314 2.687-6 6-6h27.421c.552 0 1-.448 1-1 0-.553-.448-1-1-1h-27.421c-4.418 0-8 3.581-8 8v14.571c0 4.348 1.476 8.353 3.946 11.556.5.65.015 1.591-.805 1.591h-8.772c-9.388 0-17-7.611-17-17 0-.44.358-.797.798-.797h1.612c.552 0 1-.448 1-1 0-.553-.448-1-1-1h-6.993c-4.418 0-8-3.582-8-8zm16.583-23.208c0-7.169 5.832-13 13-13h66c7.169 0 13 5.831 13 13v.729c-3.402-3.203-7.969-5.182-13-5.182h-66c-5.03 0-9.597 1.979-13 5.182zm180.502-21.466c-3.363 1.053-6.894.454-9.677-1.591-.336-.247-.477-.697-.342-1.092 1.121-3.266 3.68-5.771 7.042-6.824 3.364-1.051 6.895-.453 9.677 1.591.337.247.478.698.342 1.093-1.121 3.266-3.68 5.771-7.042 6.823zm3.752-14.364c.613.399 1.155.87 1.621 1.396.664.751-.13 1.896-1.084 1.583-2.268-.746-4.725-.84-7.136-.232-.399-.803-.667-1.672-.777-2.581-.062-.508.25-.972.739-1.123 2.228-.683 4.627-.353 6.637.957zm66.994 119.468h-50.195c-6.075 0-11-4.925-11-11v-5.146c.463.029.918.043 1.348.043 1.185 0 2.194-.093 2.734-.178 7.03-1.105 10.914-6.356 11.644-11.07.098-.633.132-1.226.106-1.769-.064-1.36.643-2.628 1.769-3.394.362-.245.717-.501 1.064-.77 5.456-4.21 7.575-9.793 5.814-15.318-1.301-4.086-4.266-7.734-8.349-10.272-4.02-2.499-8.506-3.395-12.302-2.46l-.042.01c-1.924.478-3.786-.978-3.786-2.962v-84.827c1.702 2.293 4.139 3.977 7.036 4.743 1.12.297 2.248.442 3.363.442 3.381 0 6.63-1.337 9.103-3.835.254-.256.355-.639.262-.987-1.214-4.513-4.636-7.921-9.154-9.116-2.698-.714-5.443-.548-7.918.407-1.3.502-2.692-.476-2.692-1.869v-1.672c0-.552-.448-1-1-1-.553 0-1 .448-1 1v38.432c0 1.373-1.525 2.198-2.675 1.446l-.032-.021c-3.02-1.97-6.74-2.168-9.952-.53-.32.164-.537.496-.557.854-.094 1.685.239 3.301.914 4.754-3.848 1.618-6.642 4.914-7.562 9.061-.078.351.04.729.305.974 2.437 2.251 5.517 3.438 8.696 3.438 1.299 0 2.615-.198 3.909-.603 1.557-.487 2.963-1.241 4.179-2.21 1.123-.894 2.775-.125 2.775 1.31v78.369c-1.052 1.414-1.792 2.41-2.843 3.824-.542.157-1.004.424-1.302.885-.254.393-.466 1.071-.038 2.068.362.842 1.082 1.447 1.984 1.877 1.363.647 2.199 2.058 2.199 3.567v6.505c0 3.866-3.134 7-7 7h-22.784c-1.044 0-1.903-.803-1.987-1.844-.111-1.372-.333-2.73-.669-4.065h1.056c.991 0 1.793-.803 1.793-1.794v-3.453c0-3.241-2.626-5.867-5.866-5.867h-.001c-3.24 0-5.866 2.626-5.866 5.867v3.454c0 .99.802 1.793 1.792 1.793h1.057c-.336 1.334-.558 2.692-.669 4.065-.084 1.041-.943 1.844-1.987 1.844h-11.044c-4.417 0-7.996-3.579-7.993-7.996.009-12.638.022-35.813.022-35.813 0-6.048-6.278-11.544-16.907-15.9v-.721c0-5.523-4.477-10-10-10h-.416c-1.426 0-2.692-.983-2.971-2.381-.584-2.931-1.843-5.619-3.613-7.899v-2.928c0-8.285-6.715-15-15-15h-66c-8.284 0-15 6.715-15 15v2.928c-.401.518-.774 1.056-1.121 1.614-.159.254-.322.507-.469.77-.941 1.684-1.627 3.526-2.016 5.475-.283 1.413-1.536 2.421-2.977 2.421-5.523 0-10 4.477-10 10v.753c-10.583 4.35-16.829 9.835-16.829 15.868 0 0 .013 23.176.021 35.815.003 4.415-3.575 7.994-7.991 7.994h-7.412c-.327 0-.602.167-.785.408-.127.168-.215.366-.215.592 0 .553.447 1 1 1h15.726c3.683 13.322 38.065 23.442 81.316 23.442 43.25 0 77.631-10.12 81.314-23.442h23.05 3.967 96.669c.552 0 1-.447 1-1 0-.552-.448-1-1-1zm-318.4306-159.987c2.648.145 5.002 1.564 6.376 3.875.63 1.058.997 2.208 1.101 3.373.224 2.517-2.55 4.187-4.658 2.795-.983-.649-1.825-1.525-2.458-2.59-1.375-2.31-1.498-5.056-.361-7.453zm-48.509 150.126h-1.45v-2.883c0-2.017 1.641-3.659 3.659-3.659 2.017 0 3.658 1.642 3.658 3.659v2.883h-1.45zm2.551 9.861h-.686c-.478 0-.865-.387-.865-.865v-6.996h2.417v6.996c0 .478-.388.865-.866.865zm-13.017 0h-.515c-.477 0-.865-.387-.865-.865v-16.537h2.245v16.537c0 .478-.388.865-.865.865zm-4.48-20.572v-5.879c0-2.328 1.894-4.222 4.223-4.222 2.328 0 4.221 1.894 4.221 4.222v7.049h-7.21c-.351-.449-.765-.844-1.234-1.17zm.235 20.572h-.001c-.477 0-.865-.387-.865-.865v-10.18h1.731v10.18c0 .478-.388.865-.865.865zm-5.05-13.045h-2.067v-2.883c0-2.017 1.642-3.658 3.659-3.658s3.658 1.641 3.658 3.658v2.883h-2.066zm1 13.045h1.184v-11.045h-1.184zm45.356-104.016c-3.219-1.942-5.157-5.272-5.265-8.993 3.342-1.64 7.193-1.478 10.41.463 2.37 1.429 4.045 3.611 4.808 6.146.515 1.715-.635 3.469-2.396 3.793-2.561.471-5.225-.002-7.557-1.409zm32.305 104.016h-9.35-.344v-149.072c.114.099.225.203.344.296 1.719 1.362 3.854 2.129 6.146 2.129.056 0 .112 0 .168-.001.355-.006.68-.199.855-.508 1.774-3.145 1.731-6.875-.114-9.978-1.616-2.716-4.319-4.419-7.385-4.779-.005-.007-.008-.011-.014-.017v-9.07c0-.552-.448-1-1-1s-1 .448-1 1v9.292c-.066.064-.123.137-.17.219-1.774 3.144-1.731 6.875.115 9.978.016.028.038.052.055.08v.431 147c0 2.209-1.791 4-4 4s-4-1.791-4-4v-147-3.323c0-.552-.448-1-1-1s-1 .448-1 1v44.502c-1.063-1.781-2.562-3.309-4.432-4.437-4.004-2.416-8.835-2.503-12.924-.233-.311.173-.513.508-.521.863-.102 4.676 2.228 8.909 6.233 11.325 2.071 1.249 4.362 1.875 6.657 1.875h.052c2.699-.012 4.935 2.066 4.935 4.765v93.663c0 1.105-.896 2-2 2h-28.924c-.478 0-.865-.387-.865-.865v-6.996h1.45c.552 0 1-.448 1-1v-3.685c0-2.876-2.062-5.442-4.914-5.809-3.451-.443-6.403 2.246-6.403 5.611v3.883c0 .552.447 1 1 1h1.45v6.996c0 .478-.388.865-.866.865h-4.87c-.477 0-.865-.387-.865-.865v-16.537h2.099c.553 0 1-.448 1-1v-8.049c0-2.567-1.562-4.774-3.786-5.723-.727-.311-1.162-1.067-1.162-1.858v-67.059c0-.552-.448-1-1-1-.553 0-1 .448-1 1v66.894c0 .841-.526 1.597-1.321 1.875-2.428.847-4.175 3.158-4.175 5.871v5.002c-.858-.19-1.784-.202-2.751.087-2.511.75-4.131 3.202-4.131 5.822v3.495c0 .552.448 1 1 1h2.067v10.18c0 .478-.388.865-.865.865h-21.435c-.552 0-1 .448-1 1 0 .553.448 1 1 1h101.961c.552 0 1-.447 1-1 0-.226-.089-.424-.216-.591-.182-.242-.458-.409-.784-.409z" fill="#202225"/><path d="m208.1016 66.7774c1.586-1.848 3.894-2.908 6.329-2.908 2.436 0 4.743 1.06 6.329 2.908 2.25 2.621 2.646 6.417.985 9.445l-6.559 11.961c-.221.403-.602.447-.755.447s-.534-.044-.755-.447l-6.559-11.961c-1.661-3.028-1.265-6.824.985-9.445zm3.82 22.368c.511.93 1.449 1.485 2.51 1.485 1.06 0 1.998-.556 2.508-1.485l6.559-11.961c2.059-3.755 1.568-8.461-1.221-11.71-1.968-2.291-4.827-3.605-7.847-3.605-3.019 0-5.879 1.314-7.847 3.605-2.789 3.25-3.28 7.955-1.221 11.71zm-34.5525 55.4064c2.042 0 4.085-.7 5.533-2.1.596-.575.612-1.525.036-2.121s-1.526-.611-2.121-.036c-1.74 1.682-5.156 1.683-6.896 0-.594-.575-1.545-.56-2.121.036s-.559 1.545.036 2.121c1.448 1.4 3.49 2.1 5.533 2.1m73.9976-.0004c2.042 0 4.085-.7 5.533-2.099.595-.576.612-1.526.036-2.121-.577-.597-1.527-.612-2.121-.036-1.74 1.683-5.156 1.682-6.896 0-.595-.576-1.545-.561-2.121.036-.576.595-.56 1.545.036 2.121 1.448 1.399 3.49 2.099 5.533 2.099m132.4941-28.2134h.51c.552 0 1 .448 1 1v.51c0 .553.448 1 1 1 .553 0 1-.447 1-1v-.51c0-.552.448-1 1-1h.511c.552 0 1-.448 1-1s-.448-1-1-1h-.511c-.552 0-1-.448-1-1v-.51c0-.552-.447-1-1-1-.552 0-1 .448-1 1v.51c0 .552-.448 1-1 1h-.51c-.552 0-1 .448-1 1s.448 1 1 1m-237.686-48.2984c.834 0 1.51.676 1.51 1.51 0 .553.448 1 1 1 .553 0 1-.447 1-1 0-.834.676-1.51 1.51-1.51.552 0 1-.448 1-1s-.448-1-1-1c-.834 0-1.51-.676-1.51-1.51 0-.552-.447-1-1-1-.552 0-1 .448-1 1 0 .834-.676 1.51-1.51 1.51-.552 0-1 .448-1 1s.448 1 1 1m24.7358 8.4243c.834 0 1.51.676 1.51 1.51 0 .552.448 1 1 1s1-.448 1-1c0-.834.676-1.51 1.51-1.51.552 0 1-.448 1-1s-.448-1-1-1c-.834 0-1.51-.676-1.51-1.51 0-.552-.448-1-1-1s-1 .448-1 1c0 .834-.676 1.51-1.51 1.51-.552 0-1 .448-1 1s.448 1 1 1m-29.6591 16.7667c.256 0 .512-.098.707-.293l1.183-1.183c.391-.391.391-1.024 0-1.414-.39-.391-1.023-.391-1.414 0l-1.183 1.183c-.391.391-.391 1.023 0 1.414.195.195.451.293.707.293m-5.9165 5.9165c.256 0 .512-.098.707-.293l1.184-1.184c.39-.39.39-1.023 0-1.414-.391-.39-1.024-.39-1.414 0l-1.184 1.184c-.391.391-.391 1.023 0 1.414.195.195.451.293.707.293m6.3925-.293c.195.195.451.293.707.293s.512-.098.707-.293c.391-.39.391-1.023 0-1.414l-1.183-1.184c-.391-.39-1.023-.39-1.414 0s-.391 1.024 0 1.414zm-5.916-5.9165c.195.195.451.293.707.293s.512-.098.707-.293c.391-.391.391-1.024 0-1.414l-1.184-1.183c-.39-.391-1.024-.391-1.414 0-.39.39-.39 1.024 0 1.414zm239.8028 10.0195c-.833 0-1.51-.678-1.51-1.51 0-.833.677-1.51 1.51-1.51s1.51.677 1.51 1.51c0 .832-.677 1.51-1.51 1.51m0-5.02c-1.935 0-3.51 1.575-3.51 3.51s1.575 3.51 3.51 3.51c1.936 0 3.51-1.575 3.51-3.51s-1.574-3.51-3.51-3.51" fill="#202225"/></g></svg>