<?xml version="1.0" encoding="utf-8"?>
<!-- Generator: Adobe Illustrator 17.1.0, SVG Export Plug-In . SVG Version: 6.00 Build 0)  -->
<!DOCTYPE svg PUBLIC "-//W3C//DTD SVG 1.1//EN" "http://www.w3.org/Graphics/SVG/1.1/DTD/svg11.dtd">
<svg version="1.1" id="Layer_1" xmlns="http://www.w3.org/2000/svg" xmlns:xlink="http://www.w3.org/1999/xlink" x="0px" y="0px"
	 viewBox="0 0 50 50" enable-background="new 0 0 50 50" xml:space="preserve">
<g id="tool_-_computer_monitor_mac">
	<g>
		<path fill-rule="evenodd" clip-rule="evenodd" fill="#738BD7" d="M39,9H11c-1.1,0-2,0.9-2,2v22c0,1.1,0.9,2,2,2h8v4h-2v2h16v-2h-2
			v-4h8c1.1,0,2-0.9,2-2V11C41,9.9,40.1,9,39,9z M29,39h-8v-4h8V39z M39,32c0,0.6-0.4,1-1,1H12c-0.6,0-1-0.4-1-1v-3h28V32z M39,27
			H11V12c0-0.6,0.4-1,1-1h26c0.6,0,1,0.4,1,1V27z"/>
	</g>
</g>
</svg>
